<?xml version="1.0" encoding="UTF-8" standalone="no"?>
<svg
   xmlns:dc="http://purl.org/dc/elements/1.1/"
   xmlns:cc="http://creativecommons.org/ns#"
   xmlns:rdf="http://www.w3.org/1999/02/22-rdf-syntax-ns#"
   xmlns:svg="http://www.w3.org/2000/svg"
   xmlns="http://www.w3.org/2000/svg"
   xmlns:sodipodi="http://sodipodi.sourceforge.net/DTD/sodipodi-0.dtd"
   xmlns:inkscape="http://www.inkscape.org/namespaces/inkscape"
   version="1.1"
   x="0px"
   y="0px"
   viewBox="-255 347 208.23695 208.23695"
   xml:space="preserve"
   id="svg2"
   inkscape:version="0.48.5 r10040"
   width="100%"
   height="100%"
   sodipodi:docname="bg_form_mail.svg"><metadata
     id="metadata20"><rdf:RDF><cc:Work
         rdf:about=""><dc:format>image/svg+xml</dc:format><dc:type
           rdf:resource="http://purl.org/dc/dcmitype/StillImage" /><dc:title /></cc:Work></rdf:RDF></metadata><defs
     id="defs18" /><sodipodi:namedview
     pagecolor="#ffffff"
     bordercolor="#666666"
     borderopacity="1"
     objecttolerance="10"
     gridtolerance="10"
     guidetolerance="10"
     inkscape:pageopacity="0"
     inkscape:pageshadow="2"
     inkscape:window-width="2560"
     inkscape:window-height="1354"
     id="namedview16"
     showgrid="false"
     showguides="true"
     inkscape:guide-bbox="true"
     inkscape:zoom="1.888"
     inkscape:cx="51.433825"
     inkscape:cy="0.85406643"
     inkscape:window-x="0"
     inkscape:window-y="50"
     inkscape:window-maximized="1"
     inkscape:current-layer="svg2"
     fit-margin-top="0"
     fit-margin-left="0"
     fit-margin-right="0"
     fit-margin-bottom="0"
     borderlayer="true"
     inkscape:showpageshadow="false"><sodipodi:guide
       orientation="1,0"
       position="104.05187,155.92793"
       id="guide3767" /><sodipodi:guide
       orientation="0,1"
       position="104.05187,104.02115"
       id="guide3769" /></sodipodi:namedview><path
     sodipodi:type="arc"
     style="fill:#ea1a62;fill-opacity:1"
     id="path2997"
     sodipodi:cx="-267.4122"
     sodipodi:cy="104.77555"
     sodipodi:rx="104.11848"
     sodipodi:ry="104.11848"
     d="m -163.29372,104.77555 a 104.11848,104.11848 0 1 1 -208.23696,0 104.11848,104.11848 0 1 1 208.23696,0 z"
     transform="translate(116.53068,346.34293)" /><g
     transform="matrix(2.8654436,0,0,2.8654436,90.527461,564.52106)"
     style="font-size:40px;font-style:normal;font-weight:normal;line-height:125%;letter-spacing:0px;word-spacing:0px;fill:#ffffff;fill-opacity:1;stroke:none;font-family:Sans"
     id="flowRoot3871"><path
       d="m -89.242187,-39.524565 c -1.5e-5,1.861988 0.462224,3.32683 1.386718,4.394531 0.924462,1.054693 2.193992,1.582036 3.808594,1.582032 1.601541,4e-6 2.85805,-0.533849 3.769531,-1.601563 0.924455,-1.067701 1.386694,-2.526033 1.386719,-4.375 -2.5e-5,-1.822904 -0.468775,-3.268215 -1.40625,-4.335937 -0.937523,-1.080714 -2.200542,-1.621078 -3.789062,-1.621094 -1.57554,1.6e-5 -2.832049,0.53387 -3.769532,1.601562 -0.924494,1.067723 -1.386733,2.519544 -1.386718,4.355469 m 10.644531,5.839844 c -0.781275,1.002608 -1.679712,1.744795 -2.695313,2.226562 -1.002626,0.468752 -2.1745,0.703127 -3.515625,0.703125 -2.2396,2e-6 -4.062515,-0.807289 -5.46875,-2.421875 -1.393241,-1.627598 -2.089855,-3.743481 -2.089843,-6.347656 -1.2e-5,-2.604153 0.703112,-4.720037 2.109375,-6.347656 1.406234,-1.627586 3.222639,-2.441387 5.449218,-2.441406 1.341125,1.9e-5 2.51951,0.247415 3.535157,0.742187 1.015601,0.481789 1.907527,1.217465 2.675781,2.207031 l 0,-2.558593 2.792969,0 0,14.375 c 1.901011,-0.286454 3.385384,-1.152338 4.453125,-2.597657 1.080695,-1.458324 1.621059,-3.339833 1.621093,-5.644531 -3.4e-5,-1.393215 -0.208367,-2.701807 -0.625,-3.925781 -0.403679,-1.22394 -1.022168,-2.356752 -1.855468,-3.398438 -1.354198,-1.705707 -3.007842,-3.007789 -4.960938,-3.90625 -1.940129,-0.911433 -4.056012,-1.367162 -6.347656,-1.367187 -1.601582,2.5e-5 -3.138039,0.214869 -4.609375,0.644531 -1.471369,0.416691 -2.832045,1.041691 -4.082031,1.875 -2.044281,1.328147 -3.645842,3.072937 -4.804688,5.234375 -1.145839,2.148453 -1.718755,4.47918 -1.71875,6.992188 -5e-6,2.070321 0.371088,4.010423 1.113281,5.820312 0.755201,1.809899 1.84244,3.404949 3.261719,4.785156 1.367176,1.354166 2.949206,2.382811 4.746094,3.085938 1.796858,0.716142 3.717429,1.074215 5.761719,1.074219 1.679665,-4e-6 3.326799,-0.286463 4.941406,-0.859375 1.627577,-0.559899 3.118461,-1.36719 4.472656,-2.421875 l 1.757813,2.167968 c -1.627634,1.263017 -3.404976,2.226558 -5.332032,2.890625 -1.914086,0.677077 -3.860699,1.015618 -5.839843,1.015625 -2.408873,-7e-6 -4.681006,-0.429694 -6.816407,-1.289062 -2.135428,-0.846359 -4.036468,-2.083337 -5.703125,-3.710938 -1.666673,-1.627604 -2.936202,-3.509113 -3.808596,-5.644531 -0.8724,-2.148431 -1.30859,-4.453117 -1.30859,-6.914062 0,-2.369779 0.4427,-4.628891 1.32812,-6.777344 0.885416,-2.148418 2.148435,-4.036437 3.789066,-5.664063 1.679678,-1.653621 3.619781,-2.91664 5.820313,-3.789062 2.200505,-0.885389 4.531232,-1.328097 6.992187,-1.328125 2.760394,2.8e-5 5.318985,0.566434 7.675782,1.699219 2.369761,1.132838 4.355436,2.740909 5.957031,4.824218 0.976527,1.276062 1.718714,2.66278 2.226562,4.160157 0.520797,1.497412 0.781213,3.046889 0.78125,4.648437 -3.7e-5,3.424489 -1.035192,6.126309 -3.105468,8.105469 -2.070345,1.979169 -4.928415,3.007814 -8.574219,3.085937 l 0,-3.007812"
       style=""
       id="path2993" /></g></svg>