<?xml version="1.0" encoding="UTF-8" standalone="no"?>
<!-- Created with Inkscape (http://www.inkscape.org/) -->

<svg
   xmlns:dc="http://purl.org/dc/elements/1.1/"
   xmlns:cc="http://creativecommons.org/ns#"
   xmlns:rdf="http://www.w3.org/1999/02/22-rdf-syntax-ns#"
   xmlns:svg="http://www.w3.org/2000/svg"
   xmlns="http://www.w3.org/2000/svg"
   xmlns:sodipodi="http://sodipodi.sourceforge.net/DTD/sodipodi-0.dtd"
   xmlns:inkscape="http://www.inkscape.org/namespaces/inkscape"
   width="200"
   height="200"
   id="svg2"
   version="1.1"
   inkscape:version="0.48.5 r10040"
   sodipodi:docname="js.svg">
  <defs
     id="defs4" />
  <sodipodi:namedview
     id="base"
     pagecolor="#ffffff"
     bordercolor="#666666"
     borderopacity="1.0"
     inkscape:pageopacity="0.0"
     inkscape:pageshadow="2"
     inkscape:zoom="2.8284271"
     inkscape:cx="2.1425529"
     inkscape:cy="94.577211"
     inkscape:document-units="px"
     inkscape:current-layer="layer1"
     showgrid="false"
     borderlayer="true"
     inkscape:showpageshadow="false"
     showguides="true"
     inkscape:guide-bbox="true"
     inkscape:window-width="1770"
     inkscape:window-height="930"
     inkscape:window-x="462"
     inkscape:window-y="369"
     inkscape:window-maximized="0">
    <sodipodi:guide
       orientation="1,0"
       position="100,25"
       id="guide3755" />
    <sodipodi:guide
       orientation="0,1"
       position="100,100"
       id="guide3757" />
  </sodipodi:namedview>
  <metadata
     id="metadata7">
    <rdf:RDF>
      <cc:Work
         rdf:about="">
        <dc:format>image/svg+xml</dc:format>
        <dc:type
           rdf:resource="http://purl.org/dc/dcmitype/StillImage" />
        <dc:title />
      </cc:Work>
    </rdf:RDF>
  </metadata>
  <g
     inkscape:label="Calque 1"
     inkscape:groupmode="layer"
     id="layer1"
     transform="translate(0,-852.36218)">
    <path
       transform="matrix(0.50359165,0,0,0.50359165,-74.818242,788.58443)"
       style="opacity:0.25;fill:#f3453c;fill-opacity:1;fill-rule:nonzero;stroke:none"
       d="m 545.71428,325.21933 c 0,109.66797 -88.90346,198.57143 -198.57143,198.57143 -109.66797,0 -198.57142,-88.90346 -198.57142,-198.57143 0,-109.66797 88.90345,-198.57143 198.57142,-198.57143 109.66797,0 198.57143,88.90346 198.57143,198.57143 z"
       id="path2985-6" />
    <path
       sodipodi:type="arc"
       style="fill:#f3453c;fill-opacity:1;fill-rule:nonzero;stroke:none;opacity:0.9"
       id="path2985"
       sodipodi:cx="347.14285"
       sodipodi:cy="325.21933"
       sodipodi:rx="198.57143"
       sodipodi:ry="198.57143"
       d="m 545.71428,325.22144 c -0.001,109.66797 -88.90557,198.57048 -198.57354,198.56932 -109.66797,-0.001 -198.57048,-88.90557 -198.56931,-198.57354 0.001,-109.61951 88.82995,-198.50194 198.44944,-198.56928 l 0.12198,198.57139 z"
       transform="matrix(0.50359165,0,0,0.50359165,-74.818242,788.58444)"
       sodipodi:start="1.0619886e-05"
       sodipodi:end="4.7117747" />
    <path
       sodipodi:type="arc"
       style="opacity:0.25;fill:#f3453c;fill-opacity:1;fill-rule:nonzero;stroke:none"
       id="path3005"
       sodipodi:cx="-219.5"
       sodipodi:cy="-27.5"
       sodipodi:rx="1"
       sodipodi:ry="0.5"
       d="m -218.5,-27.499995 c -1e-5,0.276143 -0.44773,0.499998 -1.00001,0.499995 -0.55229,-3e-6 -1,-0.223863 -0.99999,-0.500005 1e-5,-0.276021 0.44735,-0.499825 0.99939,-0.499995 l 6.1e-4,0.5 z"
       transform="translate(0,852.36218)"
       sodipodi:start="1.0619886e-05"
       sodipodi:end="4.7117747" />
  </g>
</svg>
