<?xml version="1.0" encoding="UTF-8" standalone="no"?>
<svg
   xmlns:dc="http://purl.org/dc/elements/1.1/"
   xmlns:cc="http://creativecommons.org/ns#"
   xmlns:rdf="http://www.w3.org/1999/02/22-rdf-syntax-ns#"
   xmlns:svg="http://www.w3.org/2000/svg"
   xmlns="http://www.w3.org/2000/svg"
   xmlns:sodipodi="http://sodipodi.sourceforge.net/DTD/sodipodi-0.dtd"
   xmlns:inkscape="http://www.inkscape.org/namespaces/inkscape"
   version="1.1"
   x="0px"
   y="0px"
   viewBox="0 0 89.34 89.34"
   enable-background="new 0 0 100 100"
   xml:space="preserve"
   id="svg2"
   inkscape:version="0.48.4 r9939"
   width="100%"
   height="100%"
   sodipodi:docname="logo.svg"><metadata
     id="metadata32"><rdf:RDF><cc:Work
         rdf:about=""><dc:format>image/svg+xml</dc:format><dc:type
           rdf:resource="http://purl.org/dc/dcmitype/StillImage" /><dc:title></dc:title></cc:Work></rdf:RDF></metadata><defs
     id="defs30" /><sodipodi:namedview
     pagecolor="#ffffff"
     bordercolor="#666666"
     borderopacity="1"
     objecttolerance="10"
     gridtolerance="10"
     guidetolerance="10"
     inkscape:pageopacity="0"
     inkscape:pageshadow="2"
     inkscape:window-width="1215"
     inkscape:window-height="1000"
     id="namedview28"
     showgrid="false"
     borderlayer="true"
     inkscape:showpageshadow="false"
     fit-margin-top="0"
     fit-margin-left="0"
     fit-margin-right="0"
     fit-margin-bottom="0"
     inkscape:zoom="2.6700352"
     inkscape:cx="77.064599"
     inkscape:cy="-4.4403288"
     inkscape:window-x="65"
     inkscape:window-y="24"
     inkscape:window-maximized="1"
     inkscape:current-layer="svg2" /><g
     id="g4"
     transform="translate(-5.33,-5.33)"
     style="fill:#808080"><path
       d="M 50,94.67 5.33,50 50,5.33 94.67,50 50,94.67 z M 8.158,50 50,91.842 91.842,50 50,8.158 8.158,50 z"
       id="path6"
       inkscape:connector-curvature="0"
       style="fill:#808080" /></g><g
     id="g8"
     transform="translate(-5.33,-5.33)"
     style="fill:#808080"><path
       d="M 50,86.185 13.815,50 50,13.815 86.185,50 50,86.185 z M 16.643,50 50,83.356 83.356,50 50,16.643 16.643,50 z"
       id="path10"
       inkscape:connector-curvature="0"
       style="fill:#808080" /></g><g
     id="g12"
     transform="translate(-5.33,-5.33)"
     style="fill:#808080"><path
       d="M 50,77.699 22.3,50 50,22.3 77.699,50 50,77.699 z M 25.128,50 50,74.871 74.871,50 50,25.128 25.128,50 z"
       id="path14"
       inkscape:connector-curvature="0"
       style="fill:#808080" /></g><g
     id="g16"
     transform="translate(-5.33,-5.33)"
     style="fill:#808080"><path
       d="M 50,69.214 30.786,50 50,30.786 69.214,50 50,69.214 z M 33.614,50 50,66.386 66.386,50 50,33.614 33.614,50 z"
       id="path18"
       inkscape:connector-curvature="0"
       style="fill:#808080" /></g><g
     id="g20"
     transform="translate(-5.33,-5.33)"
     style="fill:#808080"><path
       d="M 50,60.729 39.271,50 50,39.271 60.729,50 50,60.729 z M 42.099,50 50,57.9 57.9,50 50,42.099 42.099,50 z"
       id="path22"
       inkscape:connector-curvature="0"
       style="fill:#808080" /></g></svg>